<?xml version="1.0" encoding="utf-8"?>
<svg xmlns="http://www.w3.org/2000/svg" xmlns:ev="http://www.w3.org/2001/xml-events" xmlns:xlink="http://www.w3.org/1999/xlink" viewBox="0 0 12 12" fill="currentColor">
<defs/>
    <!-- <rect width="4px" height="1px" x="4px" y="1px"/>
    <rect width="1px" height="4px" x="1px" y="4px"/>
    <rect width="4px" height="1px" x="4px" y="10px"/>
    <rect width="1px" height="4px" x="10px" y="4px"/>

    <polygon points="2,2 4,2 4,3 3,3 3,4 2,4"/>
    <polygon points="8,2 10,2 10,4 9,4 9,3 8,3"/>
    <polygon points="2,8 3,8 3,9 4,9 4,10 2,10"/>
    <polygon points="10,10 8,10 8,9 9,9 9,8 10,8"/> -->

    <!-- polygon of all point arround -->
    <polygon points="2,2 4,2 4,1 8,1 8,2 10,2 10,4 11,4 11,8 10,8 10,10 8,10 8,11 4,11 4,10 2,10 2,8 1,8 1,4 2,4"/>

</svg>